<?xml version="1.0" encoding="UTF-8"?>
<svg xmlns="http://www.w3.org/2000/svg" xmlns:xlink="http://www.w3.org/1999/xlink" viewBox="0 0 150 150" width="150px" height="150px">
<g id="surface50002154">
<path style=" stroke:none;fill-rule:nonzero;fill:rgb(20%,20%,20%);fill-opacity:1;" d="M 75.433594 150.433594 C 34.011719 150.433594 0.433594 116.855469 0.433594 75.433594 C 0.433594 34.011719 34.011719 0.433594 75.433594 0.433594 C 116.855469 0.433594 150.433594 34.011719 150.433594 75.433594 C 150.433594 116.855469 116.855469 150.433594 75.433594 150.433594 Z M 75.433594 150.433594 "/>
<path style=" stroke:none;fill-rule:nonzero;fill:rgb(100%,100%,100%);fill-opacity:1;" d="M 27.796875 30 C 26.667969 30 25.75 30.917969 25.75 32.046875 L 25.75 105.089844 C 25.75 110.441406 27.308594 114.75 30.484375 117.882812 C 35.527344 122.871094 42.746094 123 43.46875 123 L 108.515625 123 C 108.628906 123 109.332031 123.015625 110.308594 122.871094 C 103.933594 122.066406 94.699219 117.675781 94.699219 105.089844 L 94.699219 32.046875 C 94.699219 30.917969 93.789062 30 92.652344 30 Z M 98.792969 43.75 L 98.792969 105.089844 C 98.792969 118.691406 111.921875 118.90625 112.480469 118.90625 C 113.585938 118.898438 122.714844 118.484375 124.121094 108.035156 C 124.21875 107.144531 124.25 106.21875 124.25 105.21875 L 124.25 53.859375 C 124.25 53.851562 124.25 53.800781 124.25 53.792969 C 124.179688 50.828125 122.585938 45.621094 117.277344 44.199219 C 115.617188 44.597656 114.234375 45.34375 113.183594 46.4375 C 110.476562 49.269531 110.5625 53.625 110.5625 53.664062 L 110.5625 103.363281 C 110.5625 104.5 109.652344 105.410156 108.515625 105.410156 C 107.378906 105.410156 106.46875 104.5 106.46875 103.363281 L 106.46875 53.730469 C 106.460938 53.578125 106.261719 47.871094 110.050781 43.75 Z M 38.605469 46.820312 L 78.964844 46.820312 C 80.101562 46.820312 81.011719 47.742188 81.011719 48.867188 C 81.011719 49.996094 80.101562 50.914062 78.964844 50.914062 L 38.605469 50.914062 C 37.476562 50.914062 36.558594 49.996094 36.558594 48.867188 C 36.558594 47.742188 37.476562 46.820312 38.605469 46.820312 Z M 38.605469 55.007812 L 78.964844 55.007812 C 80.101562 55.007812 81.011719 55.929688 81.011719 57.054688 C 81.011719 58.183594 80.101562 59.101562 78.964844 59.101562 L 38.605469 59.101562 C 37.476562 59.101562 36.558594 58.183594 36.558594 57.054688 C 36.558594 55.929688 37.476562 55.007812 38.605469 55.007812 Z M 39.566406 71.382812 L 53.445312 71.382812 C 54.570312 71.382812 55.492188 72.300781 55.492188 73.429688 C 55.492188 74.558594 54.570312 75.476562 53.445312 75.476562 L 39.566406 75.476562 C 38.4375 75.476562 37.519531 74.558594 37.519531 73.429688 C 37.519531 72.300781 38.4375 71.382812 39.566406 71.382812 Z M 63.167969 71.382812 L 78.964844 71.382812 C 80.101562 71.382812 81.011719 72.300781 81.011719 73.429688 C 81.011719 74.558594 80.101562 75.476562 78.964844 75.476562 L 63.167969 75.476562 C 62.039062 75.476562 61.121094 74.558594 61.121094 73.429688 C 61.121094 72.300781 62.039062 71.382812 63.167969 71.382812 Z M 39.566406 79.570312 L 53.445312 79.570312 C 54.570312 79.570312 55.492188 80.480469 55.492188 81.617188 C 55.492188 82.753906 54.570312 83.664062 53.445312 83.664062 L 39.566406 83.664062 C 38.4375 83.664062 37.519531 82.753906 37.519531 81.617188 C 37.519531 80.480469 38.4375 79.570312 39.566406 79.570312 Z M 63.167969 79.570312 L 78.964844 79.570312 C 80.101562 79.570312 81.011719 80.480469 81.011719 81.617188 C 81.011719 82.753906 80.101562 83.664062 78.964844 83.664062 L 63.167969 83.664062 C 62.039062 83.664062 61.121094 82.753906 61.121094 81.617188 C 61.121094 80.480469 62.039062 79.570312 63.167969 79.570312 Z M 63.167969 87.308594 L 78.964844 87.308594 C 80.101562 87.308594 81.011719 88.222656 81.011719 89.355469 C 81.011719 90.492188 80.101562 91.402344 78.964844 91.402344 L 63.167969 91.402344 C 62.039062 91.402344 61.121094 90.492188 61.121094 89.355469 C 61.121094 88.222656 62.039062 87.308594 63.167969 87.308594 Z M 39.566406 87.757812 L 53.445312 87.757812 C 54.570312 87.757812 55.492188 88.667969 55.492188 89.804688 C 55.492188 90.941406 54.570312 91.851562 53.445312 91.851562 L 39.566406 91.851562 C 38.4375 91.851562 37.519531 90.941406 37.519531 89.804688 C 37.519531 88.667969 38.4375 87.757812 39.566406 87.757812 Z M 63.167969 95.496094 L 78.964844 95.496094 C 80.101562 95.496094 81.011719 96.40625 81.011719 97.542969 C 81.011719 98.679688 80.101562 99.589844 78.964844 99.589844 L 63.167969 99.589844 C 62.039062 99.589844 61.121094 98.679688 61.121094 97.542969 C 61.121094 96.40625 62.039062 95.496094 63.167969 95.496094 Z M 39.566406 95.945312 L 53.445312 95.945312 C 54.570312 95.945312 55.492188 96.855469 55.492188 97.992188 C 55.492188 99.125 54.570312 100.039062 53.445312 100.039062 L 39.566406 100.039062 C 38.4375 100.039062 37.519531 99.125 37.519531 97.992188 C 37.519531 96.855469 38.4375 95.945312 39.566406 95.945312 Z M 63.167969 103.171875 L 78.964844 103.171875 C 80.101562 103.171875 81.011719 104.082031 81.011719 105.21875 C 81.011719 106.355469 80.101562 107.265625 78.964844 107.265625 L 63.167969 107.265625 C 62.039062 107.265625 61.121094 106.355469 61.121094 105.21875 C 61.121094 104.082031 62.039062 103.171875 63.167969 103.171875 Z M 39.566406 104.132812 L 53.445312 104.132812 C 54.570312 104.132812 55.492188 105.042969 55.492188 106.179688 C 55.492188 107.3125 54.570312 108.226562 53.445312 108.226562 L 39.566406 108.226562 C 38.4375 108.226562 37.519531 107.3125 37.519531 106.179688 C 37.519531 105.042969 38.4375 104.132812 39.566406 104.132812 Z M 39.566406 104.132812 "/>
</g>
</svg>
